<?xml version="1.0" standalone="no"?><svg xmlns="http://www.w3.org/2000/svg" viewBox="0 0 1440 320"><path fill="#178066" fill-opacity="1" d="M0,224L40,213.3C80,203,160,181,240,160C320,139,400,117,480,117.3C560,117,640,139,720,165.3C800,192,880,224,960,240C1040,256,1120,256,1200,229.3C1280,203,1360,149,1400,122.7L1440,96L1440,320L1400,320C1360,320,1280,320,1200,320C1120,320,1040,320,960,320C880,320,800,320,720,320C640,320,560,320,480,320C400,320,320,320,240,320C160,320,80,320,40,320L0,320Z"></path></svg>